<mxfile host="app.diagrams.net" modified="2020-06-10T04:08:22.493Z" agent="5.0 (Windows NT 10.0; Win64; x64) AppleWebKit/537.36 (KHTML, like Gecko) Chrome/80.0.3987.162 Safari/537.36" etag="MvaVisV7kneUSCdV4Jp9" compressed="false" version="13.2.1" type="github">
  <diagram name="Page-1" id="c7488fd3-1785-93aa-aadb-54a6760d102a">
    <mxGraphModel dx="1242" dy="512" grid="1" gridSize="10" guides="1" tooltips="1" connect="1" arrows="1" fold="1" page="1" pageScale="1" pageWidth="1100" pageHeight="850" background="#ffffff" math="0" shadow="0">
      <root>
        <mxCell id="0" />
        <mxCell id="1" parent="0" />
        <mxCell id="O-zvKClyaqoz1twcRvCZ-13" value="Lane 1" style="swimlane;html=1;startSize=20;horizontal=0;strokeColor=#0D0D0D;fillColor=#000000;" parent="1" vertex="1">
          <mxGeometry x="180" y="90" width="680" height="150" as="geometry" />
        </mxCell>
        <mxCell id="O-zvKClyaqoz1twcRvCZ-14" style="edgeStyle=orthogonalEdgeStyle;rounded=0;html=1;labelBackgroundColor=none;startArrow=none;startFill=0;startSize=5;endArrow=classicThin;endFill=1;endSize=5;jettySize=auto;orthogonalLoop=1;strokeWidth=1;fontFamily=Verdana;fontSize=8" parent="O-zvKClyaqoz1twcRvCZ-13" source="O-zvKClyaqoz1twcRvCZ-15" target="O-zvKClyaqoz1twcRvCZ-16" edge="1">
          <mxGeometry relative="1" as="geometry" />
        </mxCell>
        <mxCell id="3NuA4ZIhZBG0QOxVYbok-1" style="edgeStyle=orthogonalEdgeStyle;rounded=0;orthogonalLoop=1;jettySize=auto;html=1;entryX=0.25;entryY=0;entryDx=0;entryDy=0;" parent="O-zvKClyaqoz1twcRvCZ-13" source="O-zvKClyaqoz1twcRvCZ-21" target="O-zvKClyaqoz1twcRvCZ-18" edge="1">
          <mxGeometry relative="1" as="geometry" />
        </mxCell>
        <mxCell id="O-zvKClyaqoz1twcRvCZ-21" value="&lt;font style=&quot;font-size: 10px&quot;&gt;Cadastrar no Sistema&lt;/font&gt;" style="rounded=1;whiteSpace=wrap;html=1;shadow=0;labelBackgroundColor=none;strokeWidth=1;fontFamily=Verdana;fontSize=8;align=center;" parent="O-zvKClyaqoz1twcRvCZ-13" vertex="1">
          <mxGeometry x="280" y="9.999999999999972" width="70" height="37" as="geometry" />
        </mxCell>
        <mxCell id="O-zvKClyaqoz1twcRvCZ-15" value="" style="ellipse;whiteSpace=wrap;html=1;rounded=0;shadow=0;labelBackgroundColor=none;strokeWidth=1;fontFamily=Verdana;fontSize=8;align=center;" parent="O-zvKClyaqoz1twcRvCZ-13" vertex="1">
          <mxGeometry x="40" y="60" width="30" height="30" as="geometry" />
        </mxCell>
        <mxCell id="L0ZiwHmItmCpD2yZ8luU-3" value="" style="edgeStyle=orthogonalEdgeStyle;rounded=0;orthogonalLoop=1;jettySize=auto;html=1;" parent="O-zvKClyaqoz1twcRvCZ-13" source="O-zvKClyaqoz1twcRvCZ-16" target="O-zvKClyaqoz1twcRvCZ-18" edge="1">
          <mxGeometry relative="1" as="geometry" />
        </mxCell>
        <mxCell id="O-zvKClyaqoz1twcRvCZ-16" value="Acesso ao Sistema" style="rounded=1;whiteSpace=wrap;html=1;shadow=0;labelBackgroundColor=none;strokeWidth=1;fontFamily=Verdana;fontSize=8;align=center;" parent="O-zvKClyaqoz1twcRvCZ-13" vertex="1">
          <mxGeometry x="90" y="56.49999999999997" width="70" height="37" as="geometry" />
        </mxCell>
        <mxCell id="3NuA4ZIhZBG0QOxVYbok-16" style="edgeStyle=orthogonalEdgeStyle;rounded=0;orthogonalLoop=1;jettySize=auto;html=1;exitX=1;exitY=0.5;exitDx=0;exitDy=0;entryX=0.75;entryY=1;entryDx=0;entryDy=0;" parent="O-zvKClyaqoz1twcRvCZ-13" source="3NuA4ZIhZBG0QOxVYbok-14" target="O-zvKClyaqoz1twcRvCZ-21" edge="1">
          <mxGeometry relative="1" as="geometry" />
        </mxCell>
        <mxCell id="3NuA4ZIhZBG0QOxVYbok-23" style="edgeStyle=orthogonalEdgeStyle;rounded=0;orthogonalLoop=1;jettySize=auto;html=1;exitX=1;exitY=0.5;exitDx=0;exitDy=0;entryX=0;entryY=1;entryDx=0;entryDy=0;" parent="O-zvKClyaqoz1twcRvCZ-13" source="O-zvKClyaqoz1twcRvCZ-18" target="3NuA4ZIhZBG0QOxVYbok-14" edge="1">
          <mxGeometry relative="1" as="geometry" />
        </mxCell>
        <mxCell id="O-zvKClyaqoz1twcRvCZ-18" value="Logar no Sistema" style="rounded=1;whiteSpace=wrap;html=1;shadow=0;labelBackgroundColor=none;strokeWidth=1;fontFamily=Verdana;fontSize=8;align=center;" parent="O-zvKClyaqoz1twcRvCZ-13" vertex="1">
          <mxGeometry x="180" y="56.49999999999997" width="70" height="37" as="geometry" />
        </mxCell>
        <mxCell id="3NuA4ZIhZBG0QOxVYbok-21" style="edgeStyle=orthogonalEdgeStyle;rounded=0;orthogonalLoop=1;jettySize=auto;html=1;" parent="O-zvKClyaqoz1twcRvCZ-13" source="2b4e8129b02d487f-17" target="3NuA4ZIhZBG0QOxVYbok-20" edge="1">
          <mxGeometry relative="1" as="geometry">
            <Array as="points">
              <mxPoint x="365" y="63" />
            </Array>
          </mxGeometry>
        </mxCell>
        <mxCell id="3NuA4ZIhZBG0QOxVYbok-27" style="edgeStyle=orthogonalEdgeStyle;rounded=0;orthogonalLoop=1;jettySize=auto;html=1;entryX=0.5;entryY=1;entryDx=0;entryDy=0;" parent="O-zvKClyaqoz1twcRvCZ-13" source="2b4e8129b02d487f-17" target="3NuA4ZIhZBG0QOxVYbok-14" edge="1">
          <mxGeometry relative="1" as="geometry" />
        </mxCell>
        <mxCell id="2b4e8129b02d487f-17" value="&lt;font style=&quot;font-size: 10px&quot;&gt;Acessar Sistema&lt;/font&gt;" style="rounded=1;whiteSpace=wrap;html=1;shadow=0;labelBackgroundColor=none;strokeWidth=1;fontFamily=Verdana;fontSize=8;align=center;" parent="O-zvKClyaqoz1twcRvCZ-13" vertex="1">
          <mxGeometry x="330" y="90" width="70" height="37" as="geometry" />
        </mxCell>
        <mxCell id="3NuA4ZIhZBG0QOxVYbok-109" style="edgeStyle=orthogonalEdgeStyle;rounded=0;orthogonalLoop=1;jettySize=auto;html=1;entryX=0.5;entryY=0;entryDx=0;entryDy=0;strokeColor=#0D0D0D;" parent="O-zvKClyaqoz1twcRvCZ-13" source="3NuA4ZIhZBG0QOxVYbok-20" target="3NuA4ZIhZBG0QOxVYbok-108" edge="1">
          <mxGeometry relative="1" as="geometry" />
        </mxCell>
        <mxCell id="3NuA4ZIhZBG0QOxVYbok-20" value="&lt;font style=&quot;font-size: 10px&quot;&gt;Fazer Denúncia&lt;/font&gt;" style="rounded=1;whiteSpace=wrap;html=1;" parent="O-zvKClyaqoz1twcRvCZ-13" vertex="1">
          <mxGeometry x="440" y="41.5" width="80" height="43.5" as="geometry" />
        </mxCell>
        <mxCell id="3NuA4ZIhZBG0QOxVYbok-14" value="" style="rhombus;whiteSpace=wrap;html=1;" parent="O-zvKClyaqoz1twcRvCZ-13" vertex="1">
          <mxGeometry x="270" y="65" width="30" height="20" as="geometry" />
        </mxCell>
        <mxCell id="3NuA4ZIhZBG0QOxVYbok-28" value="" style="shape=mxgraph.bpmn.shape;html=1;verticalLabelPosition=bottom;labelBackgroundColor=#ffffff;verticalAlign=top;align=center;perimeter=ellipsePerimeter;outlineConnect=0;outline=standard;symbol=general;strokeColor=#0D0D0D;fillColor=#008a00;fontColor=#ffffff;" parent="O-zvKClyaqoz1twcRvCZ-13" vertex="1">
          <mxGeometry x="640" y="47" width="30" height="25" as="geometry" />
        </mxCell>
        <mxCell id="3NuA4ZIhZBG0QOxVYbok-132" style="edgeStyle=orthogonalEdgeStyle;rounded=0;orthogonalLoop=1;jettySize=auto;html=1;entryX=0.5;entryY=1;entryDx=0;entryDy=0;strokeColor=#005700;fillColor=#008a00;" parent="O-zvKClyaqoz1twcRvCZ-13" source="3NuA4ZIhZBG0QOxVYbok-108" target="3NuA4ZIhZBG0QOxVYbok-28" edge="1">
          <mxGeometry relative="1" as="geometry" />
        </mxCell>
        <mxCell id="3NuA4ZIhZBG0QOxVYbok-108" value="&lt;font size=&quot;1&quot;&gt;Verificar&lt;br&gt;Status de&lt;br&gt;Denúncia&lt;br&gt;&lt;/font&gt;" style="rounded=1;whiteSpace=wrap;html=1;strokeColor=#000000;rotation=0;" parent="O-zvKClyaqoz1twcRvCZ-13" vertex="1">
          <mxGeometry x="530" y="85" width="90" height="48.5" as="geometry" />
        </mxCell>
        <mxCell id="3NuA4ZIhZBG0QOxVYbok-44" style="edgeStyle=orthogonalEdgeStyle;rounded=0;orthogonalLoop=1;jettySize=auto;html=1;" parent="1" source="3NuA4ZIhZBG0QOxVYbok-29" target="3NuA4ZIhZBG0QOxVYbok-35" edge="1">
          <mxGeometry relative="1" as="geometry" />
        </mxCell>
        <mxCell id="3NuA4ZIhZBG0QOxVYbok-29" value="&lt;font style=&quot;font-size: 10px&quot;&gt;Recebe&lt;br&gt;&lt;/font&gt;&lt;font style=&quot;font-size: 10px&quot;&gt;Denúncia&lt;/font&gt;" style="rounded=1;whiteSpace=wrap;html=1;" parent="1" vertex="1">
          <mxGeometry x="220" y="330" width="70" height="40" as="geometry" />
        </mxCell>
        <mxCell id="3NuA4ZIhZBG0QOxVYbok-32" style="edgeStyle=orthogonalEdgeStyle;rounded=0;orthogonalLoop=1;jettySize=auto;html=1;dashed=1;fillColor=#e51400;strokeColor=#B20000;" parent="1" source="3NuA4ZIhZBG0QOxVYbok-20" target="3NuA4ZIhZBG0QOxVYbok-29" edge="1">
          <mxGeometry relative="1" as="geometry">
            <Array as="points">
              <mxPoint x="670" y="300" />
            </Array>
          </mxGeometry>
        </mxCell>
        <mxCell id="3NuA4ZIhZBG0QOxVYbok-45" style="edgeStyle=orthogonalEdgeStyle;rounded=0;orthogonalLoop=1;jettySize=auto;html=1;" parent="1" source="3NuA4ZIhZBG0QOxVYbok-35" target="3NuA4ZIhZBG0QOxVYbok-36" edge="1">
          <mxGeometry relative="1" as="geometry" />
        </mxCell>
        <mxCell id="3NuA4ZIhZBG0QOxVYbok-35" value="&lt;font size=&quot;1&quot;&gt;Arquivar&lt;br&gt;Denúncia&lt;br&gt;&lt;/font&gt;" style="rounded=1;whiteSpace=wrap;html=1;" parent="1" vertex="1">
          <mxGeometry x="360" y="330" width="70" height="40" as="geometry" />
        </mxCell>
        <mxCell id="3NuA4ZIhZBG0QOxVYbok-46" style="edgeStyle=orthogonalEdgeStyle;rounded=0;orthogonalLoop=1;jettySize=auto;html=1;entryX=0.857;entryY=0.25;entryDx=0;entryDy=0;entryPerimeter=0;dashed=1;dashPattern=1 1;fillColor=#e51400;strokeColor=#B20000;" parent="1" source="3NuA4ZIhZBG0QOxVYbok-36" target="3NuA4ZIhZBG0QOxVYbok-38" edge="1">
          <mxGeometry relative="1" as="geometry">
            <mxPoint x="520" y="510" as="targetPoint" />
            <Array as="points">
              <mxPoint x="500" y="460" />
              <mxPoint x="320" y="460" />
              <mxPoint x="320" y="530" />
            </Array>
          </mxGeometry>
        </mxCell>
        <mxCell id="3NuA4ZIhZBG0QOxVYbok-47" style="edgeStyle=orthogonalEdgeStyle;rounded=0;orthogonalLoop=1;jettySize=auto;html=1;exitX=1;exitY=0.5;exitDx=0;exitDy=0;" parent="1" source="3NuA4ZIhZBG0QOxVYbok-36" target="3NuA4ZIhZBG0QOxVYbok-37" edge="1">
          <mxGeometry relative="1" as="geometry" />
        </mxCell>
        <mxCell id="3NuA4ZIhZBG0QOxVYbok-36" value="&lt;font size=&quot;1&quot;&gt;Notificar&lt;br&gt;Agente&lt;br&gt;&lt;/font&gt;" style="rounded=1;whiteSpace=wrap;html=1;" parent="1" vertex="1">
          <mxGeometry x="485" y="330" width="70" height="40" as="geometry" />
        </mxCell>
        <mxCell id="3NuA4ZIhZBG0QOxVYbok-53" style="edgeStyle=orthogonalEdgeStyle;rounded=0;orthogonalLoop=1;jettySize=auto;html=1;strokeColor=#0D0D0D;dashed=1;" parent="1" source="3NuA4ZIhZBG0QOxVYbok-37" target="3NuA4ZIhZBG0QOxVYbok-52" edge="1">
          <mxGeometry relative="1" as="geometry">
            <Array as="points">
              <mxPoint x="870" y="350" />
              <mxPoint x="870" y="350" />
            </Array>
          </mxGeometry>
        </mxCell>
        <mxCell id="3NuA4ZIhZBG0QOxVYbok-111" style="edgeStyle=orthogonalEdgeStyle;rounded=0;orthogonalLoop=1;jettySize=auto;html=1;entryX=0.836;entryY=0.986;entryDx=0;entryDy=0;entryPerimeter=0;strokeColor=#B20000;fillColor=#e51400;dashed=1;dashPattern=1 1;" parent="1" source="3NuA4ZIhZBG0QOxVYbok-37" target="3NuA4ZIhZBG0QOxVYbok-108" edge="1">
          <mxGeometry relative="1" as="geometry">
            <Array as="points">
              <mxPoint x="950" y="350" />
              <mxPoint x="950" y="276" />
              <mxPoint x="785" y="276" />
            </Array>
          </mxGeometry>
        </mxCell>
        <mxCell id="3NuA4ZIhZBG0QOxVYbok-37" value="&lt;font style=&quot;font-size: 10px&quot;&gt;Recebe&lt;br&gt;Análise&lt;br&gt;&lt;/font&gt;" style="rounded=1;whiteSpace=wrap;html=1;" parent="1" vertex="1">
          <mxGeometry x="750" y="330" width="70" height="40" as="geometry" />
        </mxCell>
        <mxCell id="3NuA4ZIhZBG0QOxVYbok-49" style="edgeStyle=orthogonalEdgeStyle;rounded=0;orthogonalLoop=1;jettySize=auto;html=1;entryX=0;entryY=0.5;entryDx=0;entryDy=0;" parent="1" source="3NuA4ZIhZBG0QOxVYbok-38" target="3NuA4ZIhZBG0QOxVYbok-40" edge="1">
          <mxGeometry relative="1" as="geometry" />
        </mxCell>
        <mxCell id="3NuA4ZIhZBG0QOxVYbok-38" value="&lt;font size=&quot;1&quot;&gt;Receber&lt;br&gt;Notificação&lt;br&gt;&lt;/font&gt;" style="rounded=1;whiteSpace=wrap;html=1;" parent="1" vertex="1">
          <mxGeometry x="290" y="520" width="60" height="40" as="geometry" />
        </mxCell>
        <mxCell id="3NuA4ZIhZBG0QOxVYbok-51" style="edgeStyle=orthogonalEdgeStyle;rounded=0;orthogonalLoop=1;jettySize=auto;html=1;strokeColor=#B20000;fillColor=#e51400;dashed=1;dashPattern=1 1;" parent="1" source="3NuA4ZIhZBG0QOxVYbok-39" edge="1">
          <mxGeometry relative="1" as="geometry">
            <mxPoint x="800" y="373" as="targetPoint" />
            <Array as="points">
              <mxPoint x="800" y="373" />
            </Array>
          </mxGeometry>
        </mxCell>
        <mxCell id="3NuA4ZIhZBG0QOxVYbok-39" value="&lt;font size=&quot;1&quot;&gt;Retorna&lt;br&gt;Notificação&lt;br&gt;&lt;/font&gt;" style="rounded=1;whiteSpace=wrap;html=1;" parent="1" vertex="1">
          <mxGeometry x="780" y="520" width="65" height="40" as="geometry" />
        </mxCell>
        <mxCell id="3NuA4ZIhZBG0QOxVYbok-50" style="edgeStyle=orthogonalEdgeStyle;rounded=0;orthogonalLoop=1;jettySize=auto;html=1;" parent="1" source="3NuA4ZIhZBG0QOxVYbok-40" target="3NuA4ZIhZBG0QOxVYbok-39" edge="1">
          <mxGeometry relative="1" as="geometry" />
        </mxCell>
        <mxCell id="3NuA4ZIhZBG0QOxVYbok-40" value="&lt;font size=&quot;1&quot;&gt;Verificar&lt;br&gt;Localização&lt;br&gt;&lt;/font&gt;" style="rounded=1;whiteSpace=wrap;html=1;" parent="1" vertex="1">
          <mxGeometry x="630" y="520" width="70" height="40" as="geometry" />
        </mxCell>
        <mxCell id="3NuA4ZIhZBG0QOxVYbok-52" value="Notifica&lt;br&gt;Usuário" style="rounded=1;whiteSpace=wrap;html=1;strokeColor=#000000;" parent="1" vertex="1">
          <mxGeometry x="920" y="330" width="80" height="40" as="geometry" />
        </mxCell>
        <mxCell id="KYMF_m6-QLbQxirrAlfu-1" value="Lane 1" style="swimlane;html=1;startSize=20;horizontal=0;strokeColor=#0D0D0D;fillColor=#000000;" vertex="1" parent="1">
          <mxGeometry x="180" y="260" width="680" height="150" as="geometry" />
        </mxCell>
        <mxCell id="KYMF_m6-QLbQxirrAlfu-24" value="Lane 1" style="swimlane;html=1;startSize=20;horizontal=0;strokeColor=#0D0D0D;fillColor=#000000;" vertex="1" parent="1">
          <mxGeometry x="180" y="440" width="680" height="150" as="geometry" />
        </mxCell>
      </root>
    </mxGraphModel>
  </diagram>
</mxfile>
